<svg width="51" height="60" viewBox="0 0 51 60" fill="none" xmlns="http://www.w3.org/2000/svg">
<path d="M50.1974 28.9418C49.7515 28.6068 49.1829 28.7185 48.737 28.9418L25.5056 43.8511L4.76 30.5165C3.6341 29.7236 2.9541 28.4839 2.9541 27.1326V19.6612L24.6026 33.5765C24.8256 33.6882 25.1711 33.7999 25.3941 33.7999C25.6171 33.7999 25.9626 33.7999 26.1856 33.5765L50.32 18.2094C50.7659 17.8744 51 17.4165 51 16.9698C51 16.4002 50.777 15.9535 50.32 15.7301L26.2859 0.25128C25.7174 -0.0837599 25.16 -0.0837599 24.7029 0.25128L0.691148 15.7301C0.691148 15.7301 0.601967 15.8083 0.557377 15.853C0.512787 15.8976 0.457049 15.9423 0.412459 15.987C0.401311 16.0093 0.379016 16.0205 0.367869 16.0428C0.300984 16.121 0.245246 16.1992 0.200656 16.2885C0.200656 16.3108 0.178361 16.322 0.167213 16.3443C0.122623 16.4225 0.0891803 16.5119 0.0668852 16.6012C0.0668852 16.6235 0.0557377 16.6459 0.0445902 16.6682C0.0222951 16.7687 0 16.8804 0 16.9921V27.155C0 29.5226 1.23738 31.678 3.15475 32.9176L24.5803 46.6989C25.1489 47.034 25.7062 47.034 26.1633 46.6989L47.9233 32.5826V40.1545C47.9233 41.5058 47.2433 42.7566 46.1174 43.5384L25.3718 56.873L2.15148 41.9302C1.47148 41.5952 0.691148 41.7068 0.234098 42.3769C-0.100328 43.0582 0.0111475 43.8511 0.68 44.2978L24.5915 59.7766C24.8144 59.8883 25.16 60 25.383 60C25.6059 60 25.9515 59.8883 26.3974 59.8883L47.8229 46.107C49.8518 44.8674 50.9777 42.7231 50.9777 40.3443V30.1815C50.9777 29.6119 50.6433 29.1652 50.1862 28.9418H50.1974ZM25.383 3.18846L46.697 16.9698L25.383 30.751L4.06885 16.9698L25.383 3.18846Z" fill="#64D6FF"/>
</svg>
