<svg width="54" height="53" viewBox="0 0 54 53" fill="none" xmlns="http://www.w3.org/2000/svg">
<path d="M42.0335 0H11.2018C5.0152 0 0 4.99304 0 11.1523V41.8477C0 48.007 5.0152 53 11.2018 53H42.0335C48.22 53 53.2352 48.007 53.2352 41.8477V11.1523C53.2352 4.99304 48.22 0 42.0335 0Z" fill="white"/>
<path d="M44.2444 25.4254L36.3651 11.8387C35.9785 11.1724 35.2655 10.7639 34.4942 10.7639H18.7355C17.9642 10.7639 17.2512 11.1742 16.8646 11.8387L8.98525 25.4254C8.59867 26.0917 8.59867 26.9105 8.98525 27.5767L16.8646 41.1635C17.2512 41.8298 17.9642 42.2382 18.7355 42.2382H34.4942C35.2655 42.2382 35.9785 41.8279 36.3651 41.1635L44.2444 27.5767C44.631 26.9105 44.631 26.0917 44.2444 25.4254ZM26.6167 35.8914C21.4069 35.8914 17.1837 31.6869 17.1837 26.5002C17.1837 21.3134 21.4069 17.1089 26.6167 17.1089C31.8264 17.1089 36.0496 21.3134 36.0496 26.5002C36.0496 31.6869 31.8264 35.8914 26.6167 35.8914Z" fill="#0A192F"/>
</svg>
