<svg width="35" height="60" viewBox="0 0 35 60" fill="none" xmlns="http://www.w3.org/2000/svg">
<path d="M34.8593 28.6681C34.7682 28.4872 34.6265 28.3565 34.4746 28.256L26.6684 14.133L18.5788 0.613168C18.3763 0.211091 17.86 0 17.455 0C16.9386 0 16.5336 0.201039 16.3311 0.613168L8.24151 14.133L0.15187 28.7787C-0.0506235 29.1808 -0.0506235 29.5929 0.15187 29.995L8.24151 44.6406L16.3311 59.2863C16.5336 59.6884 16.9488 60 17.455 60C17.9612 60 18.3763 59.6984 18.5788 59.2863L26.6684 44.6406L34.6872 30.1256C35.0213 29.7437 35.1023 29.1506 34.8593 28.6782V28.6681ZM10.4791 15.2488L17.4449 3.55839L24.4107 15.2488L31.8321 28.8189L17.9511 35.8955L3.1083 28.7184L10.4791 15.2588V15.2488ZM24.4107 43.3138L17.4449 55.9189L10.4791 43.3138L4.41437 32.2366L17.3436 38.5291C17.4449 38.6296 17.6473 38.6296 17.86 38.6296C18.0726 38.6296 18.265 38.5291 18.6801 38.4285L30.364 32.4376L24.4107 43.3138Z" fill="#64D6FF"/>
</svg>
