<svg width="47" height="60" viewBox="0 0 47 60" fill="none" xmlns="http://www.w3.org/2000/svg">
<path d="M39.1015 29.2508C42.1955 27.1192 44.339 23.5948 44.339 19.5427C44.339 13.1375 39.1015 7.7981 32.5864 7.7981H20.9393V1.39289C20.9393 0.643686 20.2952 0 19.556 0C18.8169 0 18.1622 0.643686 18.1622 1.39289V7.7981H1.39385C0.644133 7.7981 0 8.44179 0 9.18044C0 9.9191 0.644133 10.5733 1.39385 10.5733H7.80343V49.4267H1.39385C0.644133 49.4267 0 50.0703 0 50.8196C0 51.5688 0.644133 52.2124 1.39385 52.2124H18.2678V58.6177C18.2678 59.3669 18.9119 60 19.6511 60C20.3902 60 21.0449 59.3563 21.0449 58.6177V52.2124H35.2474C41.6569 52.2124 47 46.9785 47 40.4678C46.8944 35.2339 43.5787 30.8653 39.091 29.2613L39.1015 29.2508ZM11.8582 10.4573H32.5758C37.5915 10.4573 41.6569 14.5093 41.6569 19.5322C41.6569 24.555 37.6021 28.6071 32.5758 28.6071H10.57V10.4573H11.8477H11.8582ZM35.1523 49.3106H10.5805V31.2663H35.1523C40.1681 31.2663 44.2334 35.3183 44.2334 40.3412C44.2334 45.3641 40.1786 49.3106 35.1523 49.3106Z" fill="#64D6FF"/>
</svg>
