<svg width="48" height="60" viewBox="0 0 48 60" fill="none" xmlns="http://www.w3.org/2000/svg">
<path d="M41.5814 47.2782C39.5313 47.2782 37.7281 48.2363 36.5689 49.6948L27.2737 45.1384C27.6279 43.9035 27.8211 42.6047 27.7996 41.2527C27.7996 36.643 25.5456 32.5976 22.068 30.0958L32.4365 12.4876C32.9732 12.626 33.5206 12.7111 34.1002 12.7111C37.5778 12.7111 40.4007 9.91128 40.5081 6.35557C40.5081 2.79986 37.5778 0 34.1002 0C30.6225 0 27.6923 2.90632 27.6923 6.35557C27.6923 8.35699 28.6154 10.1136 30.0429 11.274L19.7603 28.7544C18.3864 28.1263 16.8945 27.7005 15.3166 27.5408V19.9929C18.2039 19.3648 20.3077 16.863 20.3077 13.797C20.3077 10.2413 17.3775 7.44145 13.8998 7.44145C10.4222 7.44145 7.49195 10.3478 7.49195 13.797C7.49195 16.8524 9.66011 19.3542 12.483 19.9929V27.5515C5.44186 28.2434 0 34.088 0 41.2633C0 48.907 6.19321 55.0497 13.8998 55.0497C19.2558 55.0497 23.9249 52.0795 26.2433 47.704L35.3667 52.1753C35.2487 52.6437 35.1843 53.1441 35.1843 53.6444C35.1843 57.2001 38.1145 60 41.5921 60C45.0698 60 48 57.2001 48 53.6444C48 50.0887 45.0698 47.2889 41.5921 47.2889L41.5814 47.2782ZM34.0895 2.79986C36.0429 2.79986 37.6744 4.41803 37.7818 6.46203C37.7818 8.50603 36.1503 10.1242 34.0895 10.1242C32.0286 10.1242 30.3971 8.50603 30.3971 6.46203C30.3971 4.41803 32.0286 2.79986 34.0895 2.79986ZM10.1968 13.8928C10.1968 11.8488 11.8283 10.2307 13.8891 10.2307C15.9499 10.2307 17.5814 11.8488 17.5814 13.8928C17.5814 15.7239 16.2719 17.2037 14.5116 17.4911C14.3184 17.3953 14.1145 17.3314 13.8891 17.3314C13.6637 17.3314 13.4597 17.3953 13.2665 17.4911C11.5063 17.2037 10.1968 15.7239 10.1968 13.8928ZM13.8891 52.335C7.69588 52.335 2.70483 47.3847 2.70483 41.242C2.70483 35.0994 7.69588 30.149 13.8891 30.149C20.0823 30.149 25.1807 35.0994 25.0733 41.242C25.0733 47.3847 20.0823 52.335 13.8891 52.335ZM41.5814 57.4024C39.5206 57.4024 37.8891 55.7842 37.8891 53.7402C37.8891 51.6962 39.5206 50.0781 41.5814 50.0781C43.6422 50.0781 45.2737 51.6962 45.2737 53.7402C45.2737 55.7842 43.6422 57.4024 41.5814 57.4024Z" fill="#64D6FF"/>
</svg>
